<mxfile host="app.diagrams.net" agent="Mozilla/5.0 (X11; Linux x86_64) AppleWebKit/537.36 (KHTML, like Gecko) Chrome/135.0.0.0 Safari/537.36" version="26.2.13">
  <diagram name="Page-1" id="fICI4fJiQkUT-mbKf9id">
    <mxGraphModel dx="1491" dy="863" grid="1" gridSize="10" guides="1" tooltips="1" connect="1" arrows="1" fold="1" page="1" pageScale="1" pageWidth="850" pageHeight="1100" math="0" shadow="0">
      <root>
        <mxCell id="0" />
        <mxCell id="1" parent="0" />
        <mxCell id="l8959F-GNtHxCQy_hxnM-6" style="edgeStyle=orthogonalEdgeStyle;rounded=0;orthogonalLoop=1;jettySize=auto;html=1;" edge="1" parent="1" source="HPUV0rNFbqQ9U2Gf1spm-4">
          <mxGeometry relative="1" as="geometry">
            <mxPoint x="150" y="155" as="targetPoint" />
          </mxGeometry>
        </mxCell>
        <mxCell id="HPUV0rNFbqQ9U2Gf1spm-4" value="" style="ellipse;html=1;shape=startState;fillColor=#000000;strokeColor=#ff0000;" parent="1" vertex="1">
          <mxGeometry x="80" y="140" width="30" height="30" as="geometry" />
        </mxCell>
        <mxCell id="l8959F-GNtHxCQy_hxnM-36" style="edgeStyle=orthogonalEdgeStyle;rounded=0;orthogonalLoop=1;jettySize=auto;html=1;" edge="1" parent="1" target="HPUV0rNFbqQ9U2Gf1spm-8">
          <mxGeometry relative="1" as="geometry">
            <mxPoint x="150" y="55" as="sourcePoint" />
          </mxGeometry>
        </mxCell>
        <mxCell id="l8959F-GNtHxCQy_hxnM-41" style="edgeStyle=orthogonalEdgeStyle;rounded=0;orthogonalLoop=1;jettySize=auto;html=1;" edge="1" parent="1" source="HPUV0rNFbqQ9U2Gf1spm-8">
          <mxGeometry relative="1" as="geometry">
            <mxPoint x="340" y="55" as="targetPoint" />
          </mxGeometry>
        </mxCell>
        <mxCell id="HPUV0rNFbqQ9U2Gf1spm-8" value="Initialize Debug" style="rounded=1;whiteSpace=wrap;html=1;absoluteArcSize=1;arcSize=14;strokeWidth=2;" parent="1" vertex="1">
          <mxGeometry x="200" y="30" width="100" height="50" as="geometry" />
        </mxCell>
        <mxCell id="HPUV0rNFbqQ9U2Gf1spm-40" value="" style="ellipse;html=1;shape=endState;fillColor=#000000;strokeColor=#ff0000;" parent="1" vertex="1">
          <mxGeometry x="415" y="920" width="30" height="30" as="geometry" />
        </mxCell>
        <mxCell id="HPUV0rNFbqQ9U2Gf1spm-42" value="End" style="text;html=1;align=center;verticalAlign=middle;resizable=0;points=[];autosize=1;strokeColor=none;fillColor=none;" parent="1" vertex="1">
          <mxGeometry x="410" y="950" width="40" height="30" as="geometry" />
        </mxCell>
        <mxCell id="HPUV0rNFbqQ9U2Gf1spm-43" value="Start" style="text;html=1;align=center;verticalAlign=middle;resizable=0;points=[];autosize=1;strokeColor=none;fillColor=none;" parent="1" vertex="1">
          <mxGeometry x="70" y="110" width="50" height="30" as="geometry" />
        </mxCell>
        <mxCell id="l8959F-GNtHxCQy_hxnM-37" style="edgeStyle=orthogonalEdgeStyle;rounded=0;orthogonalLoop=1;jettySize=auto;html=1;" edge="1" parent="1" target="l8959F-GNtHxCQy_hxnM-1">
          <mxGeometry relative="1" as="geometry">
            <mxPoint x="150" y="115" as="sourcePoint" />
          </mxGeometry>
        </mxCell>
        <mxCell id="l8959F-GNtHxCQy_hxnM-42" style="edgeStyle=orthogonalEdgeStyle;rounded=0;orthogonalLoop=1;jettySize=auto;html=1;" edge="1" parent="1" source="l8959F-GNtHxCQy_hxnM-1">
          <mxGeometry relative="1" as="geometry">
            <mxPoint x="340" y="115" as="targetPoint" />
          </mxGeometry>
        </mxCell>
        <mxCell id="l8959F-GNtHxCQy_hxnM-1" value="Initialize LEDs" style="rounded=1;whiteSpace=wrap;html=1;absoluteArcSize=1;arcSize=14;strokeWidth=2;" vertex="1" parent="1">
          <mxGeometry x="200" y="90" width="100" height="50" as="geometry" />
        </mxCell>
        <mxCell id="l8959F-GNtHxCQy_hxnM-38" style="edgeStyle=orthogonalEdgeStyle;rounded=0;orthogonalLoop=1;jettySize=auto;html=1;exitX=0;exitY=0.5;exitDx=0;exitDy=0;entryX=0;entryY=0.5;entryDx=0;entryDy=0;" edge="1" parent="1" target="l8959F-GNtHxCQy_hxnM-2">
          <mxGeometry relative="1" as="geometry">
            <mxPoint x="150" y="175" as="sourcePoint" />
          </mxGeometry>
        </mxCell>
        <mxCell id="l8959F-GNtHxCQy_hxnM-43" style="edgeStyle=orthogonalEdgeStyle;rounded=0;orthogonalLoop=1;jettySize=auto;html=1;" edge="1" parent="1" source="l8959F-GNtHxCQy_hxnM-2">
          <mxGeometry relative="1" as="geometry">
            <mxPoint x="340" y="175" as="targetPoint" />
          </mxGeometry>
        </mxCell>
        <mxCell id="l8959F-GNtHxCQy_hxnM-2" value="Initialize LCD Screen" style="rounded=1;whiteSpace=wrap;html=1;absoluteArcSize=1;arcSize=14;strokeWidth=2;" vertex="1" parent="1">
          <mxGeometry x="200" y="150" width="100" height="50" as="geometry" />
        </mxCell>
        <mxCell id="l8959F-GNtHxCQy_hxnM-39" style="edgeStyle=orthogonalEdgeStyle;rounded=0;orthogonalLoop=1;jettySize=auto;html=1;" edge="1" parent="1" target="l8959F-GNtHxCQy_hxnM-3">
          <mxGeometry relative="1" as="geometry">
            <mxPoint x="150" y="235" as="sourcePoint" />
          </mxGeometry>
        </mxCell>
        <mxCell id="l8959F-GNtHxCQy_hxnM-44" style="edgeStyle=orthogonalEdgeStyle;rounded=0;orthogonalLoop=1;jettySize=auto;html=1;" edge="1" parent="1" source="l8959F-GNtHxCQy_hxnM-3">
          <mxGeometry relative="1" as="geometry">
            <mxPoint x="340" y="235" as="targetPoint" />
          </mxGeometry>
        </mxCell>
        <mxCell id="l8959F-GNtHxCQy_hxnM-3" value="Initialize Buttons" style="rounded=1;whiteSpace=wrap;html=1;absoluteArcSize=1;arcSize=14;strokeWidth=2;" vertex="1" parent="1">
          <mxGeometry x="200" y="210" width="100" height="50" as="geometry" />
        </mxCell>
        <mxCell id="l8959F-GNtHxCQy_hxnM-4" value="" style="endArrow=none;html=1;rounded=0;strokeWidth=3;" edge="1" parent="1">
          <mxGeometry width="50" height="50" relative="1" as="geometry">
            <mxPoint x="150" y="330" as="sourcePoint" />
            <mxPoint x="150" y="30" as="targetPoint" />
          </mxGeometry>
        </mxCell>
        <mxCell id="l8959F-GNtHxCQy_hxnM-21" style="edgeStyle=orthogonalEdgeStyle;rounded=0;orthogonalLoop=1;jettySize=auto;html=1;" edge="1" parent="1" target="l8959F-GNtHxCQy_hxnM-12">
          <mxGeometry relative="1" as="geometry">
            <mxPoint x="340" y="155" as="sourcePoint" />
          </mxGeometry>
        </mxCell>
        <mxCell id="l8959F-GNtHxCQy_hxnM-111" value="" style="edgeStyle=orthogonalEdgeStyle;rounded=0;orthogonalLoop=1;jettySize=auto;html=1;" edge="1" parent="1" source="l8959F-GNtHxCQy_hxnM-12" target="l8959F-GNtHxCQy_hxnM-110">
          <mxGeometry relative="1" as="geometry" />
        </mxCell>
        <mxCell id="l8959F-GNtHxCQy_hxnM-12" value="Off Mode" style="rounded=1;whiteSpace=wrap;html=1;absoluteArcSize=1;arcSize=14;strokeWidth=2;" vertex="1" parent="1">
          <mxGeometry x="380" y="130" width="100" height="50" as="geometry" />
        </mxCell>
        <mxCell id="l8959F-GNtHxCQy_hxnM-20" value="" style="endArrow=none;html=1;rounded=0;strokeWidth=3;" edge="1" parent="1">
          <mxGeometry width="50" height="50" relative="1" as="geometry">
            <mxPoint x="340" y="320" as="sourcePoint" />
            <mxPoint x="340" y="30" as="targetPoint" />
          </mxGeometry>
        </mxCell>
        <mxCell id="l8959F-GNtHxCQy_hxnM-30" value="" style="edgeStyle=orthogonalEdgeStyle;rounded=0;orthogonalLoop=1;jettySize=auto;html=1;entryX=0;entryY=0.5;entryDx=0;entryDy=0;" edge="1" parent="1" source="l8959F-GNtHxCQy_hxnM-26" target="l8959F-GNtHxCQy_hxnM-29">
          <mxGeometry relative="1" as="geometry">
            <Array as="points" />
          </mxGeometry>
        </mxCell>
        <mxCell id="l8959F-GNtHxCQy_hxnM-83" value="" style="edgeStyle=orthogonalEdgeStyle;rounded=0;orthogonalLoop=1;jettySize=auto;html=1;" edge="1" parent="1" source="l8959F-GNtHxCQy_hxnM-26" target="l8959F-GNtHxCQy_hxnM-82">
          <mxGeometry relative="1" as="geometry" />
        </mxCell>
        <mxCell id="l8959F-GNtHxCQy_hxnM-106" value="" style="edgeStyle=orthogonalEdgeStyle;rounded=0;orthogonalLoop=1;jettySize=auto;html=1;" edge="1" parent="1" source="l8959F-GNtHxCQy_hxnM-26" target="l8959F-GNtHxCQy_hxnM-105">
          <mxGeometry relative="1" as="geometry" />
        </mxCell>
        <mxCell id="l8959F-GNtHxCQy_hxnM-26" value="Press Green Button" style="rounded=1;whiteSpace=wrap;html=1;absoluteArcSize=1;arcSize=14;strokeWidth=2;" vertex="1" parent="1">
          <mxGeometry x="380" y="370" width="100" height="70" as="geometry" />
        </mxCell>
        <mxCell id="l8959F-GNtHxCQy_hxnM-47" value="" style="edgeStyle=orthogonalEdgeStyle;rounded=0;orthogonalLoop=1;jettySize=auto;html=1;" edge="1" parent="1" source="l8959F-GNtHxCQy_hxnM-29" target="l8959F-GNtHxCQy_hxnM-46">
          <mxGeometry relative="1" as="geometry" />
        </mxCell>
        <mxCell id="l8959F-GNtHxCQy_hxnM-29" value="Heating Mode" style="rounded=1;whiteSpace=wrap;html=1;absoluteArcSize=1;arcSize=14;strokeWidth=2;" vertex="1" parent="1">
          <mxGeometry x="550" y="370" width="100" height="70" as="geometry" />
        </mxCell>
        <mxCell id="l8959F-GNtHxCQy_hxnM-40" style="edgeStyle=orthogonalEdgeStyle;rounded=0;orthogonalLoop=1;jettySize=auto;html=1;" edge="1" parent="1" target="l8959F-GNtHxCQy_hxnM-34">
          <mxGeometry relative="1" as="geometry">
            <mxPoint x="150" y="305" as="sourcePoint" />
          </mxGeometry>
        </mxCell>
        <mxCell id="l8959F-GNtHxCQy_hxnM-45" style="edgeStyle=orthogonalEdgeStyle;rounded=0;orthogonalLoop=1;jettySize=auto;html=1;" edge="1" parent="1" source="l8959F-GNtHxCQy_hxnM-34">
          <mxGeometry relative="1" as="geometry">
            <mxPoint x="340" y="305" as="targetPoint" />
          </mxGeometry>
        </mxCell>
        <mxCell id="l8959F-GNtHxCQy_hxnM-34" value="Initialize AHT20 Temp Sensor&amp;nbsp;" style="rounded=1;whiteSpace=wrap;html=1;absoluteArcSize=1;arcSize=14;strokeWidth=2;" vertex="1" parent="1">
          <mxGeometry x="200" y="280" width="100" height="50" as="geometry" />
        </mxCell>
        <mxCell id="l8959F-GNtHxCQy_hxnM-49" value="" style="edgeStyle=orthogonalEdgeStyle;rounded=0;orthogonalLoop=1;jettySize=auto;html=1;" edge="1" parent="1" source="l8959F-GNtHxCQy_hxnM-46" target="l8959F-GNtHxCQy_hxnM-48">
          <mxGeometry relative="1" as="geometry" />
        </mxCell>
        <mxCell id="l8959F-GNtHxCQy_hxnM-52" value="" style="edgeStyle=orthogonalEdgeStyle;rounded=0;orthogonalLoop=1;jettySize=auto;html=1;" edge="1" parent="1" source="l8959F-GNtHxCQy_hxnM-46" target="l8959F-GNtHxCQy_hxnM-51">
          <mxGeometry relative="1" as="geometry" />
        </mxCell>
        <mxCell id="l8959F-GNtHxCQy_hxnM-46" value="Temp &amp;lt;&lt;span style=&quot;background-color: transparent; color: light-dark(rgb(0, 0, 0), rgb(255, 255, 255));&quot;&gt;&amp;nbsp;setPoint&lt;/span&gt;" style="rhombus;whiteSpace=wrap;html=1;rounded=1;absoluteArcSize=1;arcSize=14;strokeWidth=2;" vertex="1" parent="1">
          <mxGeometry x="700" y="490" width="110" height="80" as="geometry" />
        </mxCell>
        <mxCell id="l8959F-GNtHxCQy_hxnM-71" style="edgeStyle=orthogonalEdgeStyle;rounded=0;orthogonalLoop=1;jettySize=auto;html=1;entryX=1;entryY=0.5;entryDx=0;entryDy=0;" edge="1" parent="1" source="l8959F-GNtHxCQy_hxnM-48" target="l8959F-GNtHxCQy_hxnM-59">
          <mxGeometry relative="1" as="geometry">
            <Array as="points">
              <mxPoint x="755" y="710" />
            </Array>
          </mxGeometry>
        </mxCell>
        <mxCell id="l8959F-GNtHxCQy_hxnM-48" value="Red Light Pulses" style="whiteSpace=wrap;html=1;rounded=1;absoluteArcSize=1;arcSize=14;strokeWidth=2;" vertex="1" parent="1">
          <mxGeometry x="715" y="615" width="80" height="30" as="geometry" />
        </mxCell>
        <mxCell id="l8959F-GNtHxCQy_hxnM-50" value="Yes" style="text;html=1;align=center;verticalAlign=middle;resizable=0;points=[];autosize=1;strokeColor=none;fillColor=none;" vertex="1" parent="1">
          <mxGeometry x="755" y="570" width="40" height="30" as="geometry" />
        </mxCell>
        <mxCell id="l8959F-GNtHxCQy_hxnM-61" style="edgeStyle=orthogonalEdgeStyle;rounded=0;orthogonalLoop=1;jettySize=auto;html=1;entryX=0.5;entryY=1;entryDx=0;entryDy=0;" edge="1" parent="1" source="l8959F-GNtHxCQy_hxnM-51" target="l8959F-GNtHxCQy_hxnM-29">
          <mxGeometry relative="1" as="geometry" />
        </mxCell>
        <mxCell id="l8959F-GNtHxCQy_hxnM-51" value="Solid Red Light" style="whiteSpace=wrap;html=1;rounded=1;absoluteArcSize=1;arcSize=14;strokeWidth=2;" vertex="1" parent="1">
          <mxGeometry x="550" y="507.5" width="100" height="45" as="geometry" />
        </mxCell>
        <mxCell id="l8959F-GNtHxCQy_hxnM-53" value="No" style="text;html=1;align=center;verticalAlign=middle;resizable=0;points=[];autosize=1;strokeColor=none;fillColor=none;" vertex="1" parent="1">
          <mxGeometry x="660" y="500" width="40" height="30" as="geometry" />
        </mxCell>
        <mxCell id="l8959F-GNtHxCQy_hxnM-63" value="" style="edgeStyle=orthogonalEdgeStyle;rounded=0;orthogonalLoop=1;jettySize=auto;html=1;" edge="1" parent="1" source="l8959F-GNtHxCQy_hxnM-59" target="l8959F-GNtHxCQy_hxnM-62">
          <mxGeometry relative="1" as="geometry" />
        </mxCell>
        <mxCell id="l8959F-GNtHxCQy_hxnM-59" value="Press Red Button" style="whiteSpace=wrap;html=1;rounded=1;absoluteArcSize=1;arcSize=14;strokeWidth=2;" vertex="1" parent="1">
          <mxGeometry x="595" y="680" width="105" height="60" as="geometry" />
        </mxCell>
        <mxCell id="l8959F-GNtHxCQy_hxnM-64" style="edgeStyle=orthogonalEdgeStyle;rounded=0;orthogonalLoop=1;jettySize=auto;html=1;entryX=0;entryY=0.5;entryDx=0;entryDy=0;" edge="1" parent="1" source="l8959F-GNtHxCQy_hxnM-62" target="l8959F-GNtHxCQy_hxnM-51">
          <mxGeometry relative="1" as="geometry" />
        </mxCell>
        <mxCell id="l8959F-GNtHxCQy_hxnM-72" style="edgeStyle=orthogonalEdgeStyle;rounded=0;orthogonalLoop=1;jettySize=auto;html=1;entryX=0;entryY=0.5;entryDx=0;entryDy=0;" edge="1" parent="1" source="l8959F-GNtHxCQy_hxnM-62" target="l8959F-GNtHxCQy_hxnM-48">
          <mxGeometry relative="1" as="geometry" />
        </mxCell>
        <mxCell id="l8959F-GNtHxCQy_hxnM-62" value="Temp &amp;gt;= setPoint" style="rhombus;whiteSpace=wrap;html=1;rounded=1;absoluteArcSize=1;arcSize=14;strokeWidth=2;" vertex="1" parent="1">
          <mxGeometry x="490" y="590" width="80" height="80" as="geometry" />
        </mxCell>
        <mxCell id="l8959F-GNtHxCQy_hxnM-73" value="No" style="text;html=1;align=center;verticalAlign=middle;resizable=0;points=[];autosize=1;strokeColor=none;fillColor=none;" vertex="1" parent="1">
          <mxGeometry x="620" y="600" width="40" height="30" as="geometry" />
        </mxCell>
        <mxCell id="l8959F-GNtHxCQy_hxnM-74" value="Yes" style="text;html=1;align=center;verticalAlign=middle;resizable=0;points=[];autosize=1;strokeColor=none;fillColor=none;" vertex="1" parent="1">
          <mxGeometry x="490" y="552.5" width="40" height="30" as="geometry" />
        </mxCell>
        <mxCell id="l8959F-GNtHxCQy_hxnM-85" value="" style="edgeStyle=orthogonalEdgeStyle;rounded=0;orthogonalLoop=1;jettySize=auto;html=1;" edge="1" parent="1" source="l8959F-GNtHxCQy_hxnM-82" target="l8959F-GNtHxCQy_hxnM-84">
          <mxGeometry relative="1" as="geometry" />
        </mxCell>
        <mxCell id="l8959F-GNtHxCQy_hxnM-82" value="Cooling Mode" style="rounded=1;whiteSpace=wrap;html=1;absoluteArcSize=1;arcSize=14;strokeWidth=2;" vertex="1" parent="1">
          <mxGeometry x="200" y="370" width="100" height="70" as="geometry" />
        </mxCell>
        <mxCell id="l8959F-GNtHxCQy_hxnM-87" value="" style="edgeStyle=orthogonalEdgeStyle;rounded=0;orthogonalLoop=1;jettySize=auto;html=1;" edge="1" parent="1" source="l8959F-GNtHxCQy_hxnM-84" target="l8959F-GNtHxCQy_hxnM-86">
          <mxGeometry relative="1" as="geometry" />
        </mxCell>
        <mxCell id="l8959F-GNtHxCQy_hxnM-94" style="edgeStyle=orthogonalEdgeStyle;rounded=0;orthogonalLoop=1;jettySize=auto;html=1;entryX=0.5;entryY=0;entryDx=0;entryDy=0;" edge="1" parent="1" source="l8959F-GNtHxCQy_hxnM-84" target="l8959F-GNtHxCQy_hxnM-90">
          <mxGeometry relative="1" as="geometry" />
        </mxCell>
        <mxCell id="l8959F-GNtHxCQy_hxnM-84" value="Temp &amp;gt; setPoint" style="rhombus;whiteSpace=wrap;html=1;rounded=1;absoluteArcSize=1;arcSize=14;strokeWidth=2;" vertex="1" parent="1">
          <mxGeometry x="30" y="490" width="110" height="80" as="geometry" />
        </mxCell>
        <mxCell id="l8959F-GNtHxCQy_hxnM-89" style="edgeStyle=orthogonalEdgeStyle;rounded=0;orthogonalLoop=1;jettySize=auto;html=1;entryX=0.5;entryY=1;entryDx=0;entryDy=0;" edge="1" parent="1" source="l8959F-GNtHxCQy_hxnM-86" target="l8959F-GNtHxCQy_hxnM-82">
          <mxGeometry relative="1" as="geometry" />
        </mxCell>
        <mxCell id="l8959F-GNtHxCQy_hxnM-86" value="Solid Blue Light" style="whiteSpace=wrap;html=1;rounded=1;absoluteArcSize=1;arcSize=14;strokeWidth=2;" vertex="1" parent="1">
          <mxGeometry x="200" y="508" width="100" height="42.5" as="geometry" />
        </mxCell>
        <mxCell id="l8959F-GNtHxCQy_hxnM-88" value="No" style="text;html=1;align=center;verticalAlign=middle;resizable=0;points=[];autosize=1;strokeColor=none;fillColor=none;" vertex="1" parent="1">
          <mxGeometry x="140" y="500" width="40" height="30" as="geometry" />
        </mxCell>
        <mxCell id="l8959F-GNtHxCQy_hxnM-97" value="" style="edgeStyle=orthogonalEdgeStyle;rounded=0;orthogonalLoop=1;jettySize=auto;html=1;" edge="1" parent="1" source="l8959F-GNtHxCQy_hxnM-90" target="l8959F-GNtHxCQy_hxnM-96">
          <mxGeometry relative="1" as="geometry">
            <Array as="points">
              <mxPoint x="85" y="710" />
            </Array>
          </mxGeometry>
        </mxCell>
        <mxCell id="l8959F-GNtHxCQy_hxnM-90" value="Blue Light Pulses" style="whiteSpace=wrap;html=1;rounded=1;absoluteArcSize=1;arcSize=14;strokeWidth=2;" vertex="1" parent="1">
          <mxGeometry x="42.5" y="615" width="85" height="35" as="geometry" />
        </mxCell>
        <mxCell id="l8959F-GNtHxCQy_hxnM-95" value="Yes" style="text;html=1;align=center;verticalAlign=middle;resizable=0;points=[];autosize=1;strokeColor=none;fillColor=none;" vertex="1" parent="1">
          <mxGeometry x="40" y="570" width="40" height="30" as="geometry" />
        </mxCell>
        <mxCell id="l8959F-GNtHxCQy_hxnM-99" value="" style="edgeStyle=orthogonalEdgeStyle;rounded=0;orthogonalLoop=1;jettySize=auto;html=1;" edge="1" parent="1" source="l8959F-GNtHxCQy_hxnM-96" target="l8959F-GNtHxCQy_hxnM-98">
          <mxGeometry relative="1" as="geometry" />
        </mxCell>
        <mxCell id="l8959F-GNtHxCQy_hxnM-96" value="Press Blue Button" style="whiteSpace=wrap;html=1;rounded=1;absoluteArcSize=1;arcSize=14;strokeWidth=2;" vertex="1" parent="1">
          <mxGeometry x="140" y="690" width="105" height="40" as="geometry" />
        </mxCell>
        <mxCell id="l8959F-GNtHxCQy_hxnM-100" style="edgeStyle=orthogonalEdgeStyle;rounded=0;orthogonalLoop=1;jettySize=auto;html=1;entryX=1;entryY=0.5;entryDx=0;entryDy=0;" edge="1" parent="1" source="l8959F-GNtHxCQy_hxnM-98" target="l8959F-GNtHxCQy_hxnM-86">
          <mxGeometry relative="1" as="geometry" />
        </mxCell>
        <mxCell id="l8959F-GNtHxCQy_hxnM-101" style="edgeStyle=orthogonalEdgeStyle;rounded=0;orthogonalLoop=1;jettySize=auto;html=1;entryX=1;entryY=0.5;entryDx=0;entryDy=0;" edge="1" parent="1" source="l8959F-GNtHxCQy_hxnM-98" target="l8959F-GNtHxCQy_hxnM-90">
          <mxGeometry relative="1" as="geometry" />
        </mxCell>
        <mxCell id="l8959F-GNtHxCQy_hxnM-98" value="Temp &amp;lt;= setPoint" style="rhombus;whiteSpace=wrap;html=1;rounded=1;absoluteArcSize=1;arcSize=14;strokeWidth=2;" vertex="1" parent="1">
          <mxGeometry x="280" y="592.5" width="90" height="80" as="geometry" />
        </mxCell>
        <mxCell id="l8959F-GNtHxCQy_hxnM-102" value="Yes" style="text;html=1;align=center;verticalAlign=middle;resizable=0;points=[];autosize=1;strokeColor=none;fillColor=none;" vertex="1" parent="1">
          <mxGeometry x="330" y="548" width="40" height="30" as="geometry" />
        </mxCell>
        <mxCell id="l8959F-GNtHxCQy_hxnM-103" value="No" style="text;html=1;align=center;verticalAlign=middle;resizable=0;points=[];autosize=1;strokeColor=none;fillColor=none;" vertex="1" parent="1">
          <mxGeometry x="190" y="598" width="40" height="30" as="geometry" />
        </mxCell>
        <mxCell id="l8959F-GNtHxCQy_hxnM-114" value="" style="edgeStyle=orthogonalEdgeStyle;rounded=0;orthogonalLoop=1;jettySize=auto;html=1;" edge="1" parent="1" source="l8959F-GNtHxCQy_hxnM-105" target="l8959F-GNtHxCQy_hxnM-113">
          <mxGeometry relative="1" as="geometry" />
        </mxCell>
        <mxCell id="l8959F-GNtHxCQy_hxnM-105" value="Press CTRL + C" style="rounded=1;whiteSpace=wrap;html=1;absoluteArcSize=1;arcSize=14;strokeWidth=2;" vertex="1" parent="1">
          <mxGeometry x="380" y="670" width="100" height="70" as="geometry" />
        </mxCell>
        <mxCell id="l8959F-GNtHxCQy_hxnM-112" style="edgeStyle=orthogonalEdgeStyle;rounded=0;orthogonalLoop=1;jettySize=auto;html=1;entryX=0.5;entryY=0;entryDx=0;entryDy=0;" edge="1" parent="1" source="l8959F-GNtHxCQy_hxnM-110" target="l8959F-GNtHxCQy_hxnM-26">
          <mxGeometry relative="1" as="geometry" />
        </mxCell>
        <mxCell id="l8959F-GNtHxCQy_hxnM-110" value="Temperature, Date, Time Displayed" style="rounded=1;whiteSpace=wrap;html=1;absoluteArcSize=1;arcSize=14;strokeWidth=2;" vertex="1" parent="1">
          <mxGeometry x="380" y="240" width="100" height="50" as="geometry" />
        </mxCell>
        <mxCell id="l8959F-GNtHxCQy_hxnM-115" style="edgeStyle=orthogonalEdgeStyle;rounded=0;orthogonalLoop=1;jettySize=auto;html=1;entryX=0.5;entryY=0;entryDx=0;entryDy=0;" edge="1" parent="1" source="l8959F-GNtHxCQy_hxnM-113" target="HPUV0rNFbqQ9U2Gf1spm-40">
          <mxGeometry relative="1" as="geometry" />
        </mxCell>
        <mxCell id="l8959F-GNtHxCQy_hxnM-113" value="Date Off, Time Off, GPIO and Display Cleared" style="rounded=1;whiteSpace=wrap;html=1;absoluteArcSize=1;arcSize=14;strokeWidth=2;" vertex="1" parent="1">
          <mxGeometry x="380" y="800" width="100" height="70" as="geometry" />
        </mxCell>
      </root>
    </mxGraphModel>
  </diagram>
</mxfile>
